Coordinates
version=1
nRows=6
nColumns=36
inDegrees=yes

Units are S.I. units (second, meters, Newtons, ...)
If the header above contains a line with 'inDegrees', this indicates whether rotational values are in degrees (yes) or radians (no).

endheader
time	pelvis_tilt	pelvis_list	pelvis_rotation	pelvis_tx	pelvis_ty	pelvis_tz	hip_flexion_r	hip_adduction_r	hip_rotation_r	knee_angle_r	knee_angle_r_beta	ankle_angle_r	subtalar_angle_r	mtp_angle_r	hip_flexion_l	hip_adduction_l	hip_rotation_l	knee_angle_l	knee_angle_l_beta	ankle_angle_l	subtalar_angle_l	mtp_angle_l	lumbar_extension	lumbar_bending	lumbar_rotation	arm_flex_r	arm_add_r	arm_rot_r	elbow_flex_r	pro_sup_r	arm_flex_l	arm_add_l	arm_rot_l	elbow_flex_l	pro_sup_l
      2.71666670	      5.19800906	     -1.05983165	    -16.00749520	      0.99200503	      0.80190958	     -0.05378712	     56.64060145	     -9.36188307	     -4.46162895	     29.77809376	      0.51972578	    -22.49895135	     10.70917083	     -7.49999987	     31.86316906	     13.79281006	      3.99184576	     72.97643594	      1.27367908	     16.12798874	    -11.48556643	     -7.49999987	    -30.18149003	     -3.55326349	      0.88686939	     44.62788992	     -4.70172428	     54.93904904	    128.13512387	     89.07879847	     48.42730649	    -11.59758612	     68.77264274	    136.31848327	     86.36071847
      2.73333330	      5.03420536	     -0.96593167	    -15.83871531	      0.99219065	      0.80197846	     -0.05374769	     57.17112542	     -9.63145237	     -4.51103183	     29.79145637	      0.51995900	    -22.72306513	     10.54873982	     -7.49999987	     32.26813399	     13.81065875	      3.78281784	     73.47422816	      1.28236720	     16.39750037	    -10.92663715	     -7.49999987	    -30.17734231	     -3.59614128	      0.96443033	     44.61122103	     -5.03533774	     55.75784659	    128.61933971	     88.27875318	     48.57280718	    -11.82932556	     70.46282309	    135.74219332	     85.86617529
      2.75000000	      5.19072122	     -0.93991725	    -15.61138994	      0.98743588	      0.80084652	     -0.05787807	     57.50632036	    -10.06371706	     -4.73966486	     29.68543819	      0.51810864	    -23.24333775	     10.77233350	     -7.49999987	     32.52739587	     13.97172953	      3.55822747	     73.73203433	      1.28686676	     16.00431842	    -10.88367879	     -7.49999987	    -30.52435840	     -3.50423519	      0.82583016	     44.98296951	     -4.86644398	     55.71845287	    128.71709458	     88.36450788	     48.76261009	    -11.78261194	     70.76889440	    135.57212433	     85.99165159
      2.76666670	      5.30651561	     -0.89656594	    -15.34462905	      0.98807640	      0.80104552	     -0.05792975	     57.51880994	    -10.51990143	     -5.11982813	     29.05352138	      0.50707961	    -23.71614607	     11.59069634	     -7.49999987	     32.47246788	     14.18573269	      3.50331861	     73.76570932	      1.28745450	     15.49152685	    -10.72794833	     -7.49999987	    -30.90407274	     -3.50351399	      0.58172694	     44.90816080	     -4.86111605	     55.96065291	    128.67772299	     88.32093526	     49.05823732	    -12.12463744	     71.31203656	    135.41900721	     86.02927595
      2.78333330	      5.43687465	     -1.00354826	    -15.20603033	      0.98847629	      0.80004788	     -0.05810294	     57.27874259	    -10.79433825	     -5.56348423	     28.25052135	      0.49306461	    -24.28808084	     12.65911815	     -7.49999987	     32.21739118	     14.21995340	      3.44955236	     73.65039603	      1.28544191	     14.92681708	    -10.69263988	     -7.49999987	    -31.10303431	     -3.39748836	      0.24987785	     45.02745415	     -4.54705385	     56.58436749	    128.62221983	     88.37613425	     49.26862081	    -12.25449386	     72.13539970	    135.16351852	     86.10175293
      2.80000000	      5.45643525	     -1.09758087	    -15.18633062	      0.98847563	      0.79758473	     -0.05894842	     57.29743898	    -10.88087269	     -5.52989565	     27.80761060	      0.48533436	    -24.92696771	     13.12427543	     -7.49999987	     32.35220210	     14.10150520	      3.28617246	     73.99023559	      1.29137323	     15.10537536	    -10.31374145	     -7.49999987	    -31.01258596	     -3.47339449	      0.24423760	     45.23054714	     -4.39702970	     56.72140545	    128.20731056	     91.02532118	     49.60574087	    -12.02417608	     72.56850643	    134.83082759	     88.44556486
